<svg width="31" height="31" viewBox="0 0 31 31" fill="none" xmlns="http://www.w3.org/2000/svg">
<path d="M9.15909 0C4.1075 0 0 4.1075 0 9.15909V21.8409C0 26.8925 4.1075 31 9.15909 31H21.8409C26.8925 31 31 26.8925 31 21.8409V9.15909C31 4.1075 26.8925 0 21.8409 0H9.15909ZM23.9545 5.63636C24.7295 5.63636 25.3636 6.27045 25.3636 7.04545C25.3636 7.82045 24.7295 8.45455 23.9545 8.45455C23.1795 8.45455 22.5455 7.82045 22.5455 7.04545C22.5455 6.27045 23.1795 5.63636 23.9545 5.63636ZM15.5 7.75C19.7766 7.75 23.25 11.2234 23.25 15.5C23.25 19.7766 19.7766 23.25 15.5 23.25C11.2234 23.25 7.75 19.7766 7.75 15.5C7.75 11.2234 11.2234 7.75 15.5 7.75ZM15.5 9.15909C12.0055 9.15909 9.15909 12.0055 9.15909 15.5C9.15909 18.9945 12.0055 21.8409 15.5 21.8409C18.9945 21.8409 21.8409 18.9945 21.8409 15.5C21.8409 12.0055 18.9945 9.15909 15.5 9.15909Z" fill="white"/>
</svg>
