<svg width="29" height="298" viewBox="0 0 29 298" fill="none" xmlns="http://www.w3.org/2000/svg">
<path d="M21.1409 -6.10352e-05C21.7355 0.205856 22.3408 0.379669 22.9195 0.620354C26.0767 1.93341 27.4874 4.60501 27.7487 7.7446C28.0847 11.7667 28.042 15.8236 28.0767 19.8671C28.122 25.1648 28.0847 30.4652 28.0793 35.7655C28.0793 36.057 28.0527 36.3512 28.0287 36.9048C25.7194 35.0916 23.5701 33.455 21.4955 31.7274C21.1302 31.4225 20.9169 30.7379 20.9142 30.2272C20.8742 24.1245 20.8902 18.0218 20.8902 11.9191C20.8902 11.4297 20.8902 10.9377 20.8822 10.4483C20.8502 8.95603 20.2982 8.27144 19.1569 8.29016C18.0369 8.30888 17.413 9.06836 17.4103 10.451C17.405 15.4411 17.5063 20.434 17.3596 25.4188C17.301 27.4085 16.877 29.4329 16.309 31.3477C15.4877 34.1182 12.8691 35.7121 9.97584 35.8618C4.68531 36.1319 2.09605 32.5484 1.42674 28.2268C1.20541 26.7961 1.1574 25.3252 1.15207 23.8731C1.12541 16.7007 1.13874 9.52836 1.13874 2.35598V0.668503C3.12269 2.17679 4.82398 3.62356 6.67993 4.83767C8.09323 5.76029 8.40255 6.89419 8.37588 8.49073C8.27988 14.1468 8.31188 19.8055 8.37588 25.4616C8.38388 26.1248 8.75453 26.9512 9.23719 27.3844C9.54651 27.6599 10.6425 27.5743 10.9118 27.2507C11.3971 26.6731 11.7571 25.7986 11.7678 25.0418C11.8371 19.6076 11.7865 14.1735 11.8238 8.73677C11.8291 7.78206 12.0051 6.81128 12.2211 5.87529C12.9171 2.88813 14.6237 0.810238 17.6716 -6.10352e-05H21.1382H21.1409Z" fill="white" fill-opacity="0.29"/>
<path d="M1.05373 224.088C3.60566 226 5.8536 227.639 8.03487 229.367C8.31487 229.588 8.32821 230.249 8.33088 230.706C8.34954 236.542 8.3362 242.379 8.35487 248.215C8.35487 248.822 8.37087 249.517 8.6562 250.009C8.93619 250.488 9.6215 251.1 10.0375 251.039C10.5868 250.956 11.2215 250.362 11.4935 249.822C11.7921 249.234 11.7948 248.458 11.7975 247.763C11.8188 242.505 11.7548 237.248 11.8348 231.993C11.8668 229.931 12.3521 227.955 13.5494 226.16C14.536 224.679 15.9333 223.82 17.528 223.636C23.7971 222.908 27.6717 225.711 27.997 232.431C28.4183 241.173 28.2557 249.942 28.3437 258.701C28.349 259.179 28.3437 259.658 28.3437 260.519C27.125 259.639 26.1491 258.955 25.1944 258.241C24.6344 257.821 24.1731 257.216 23.5598 256.928C21.0879 255.756 20.7465 253.772 20.8239 251.255C20.9972 245.514 20.8825 239.764 20.8772 234.017C20.8772 232.439 20.2612 231.789 18.9146 231.872C17.448 231.963 17.48 233.148 17.4426 234.097C17.3546 236.277 17.4133 238.462 17.4133 240.644C17.4133 243.941 17.5066 247.241 17.384 250.533C17.2746 253.456 16.5306 256.243 14 258.059C10.3575 260.671 3.67232 259.85 2.00037 253.938C1.36305 251.686 1.09107 249.266 1.0564 246.918C0.949737 239.927 1.04307 232.934 1.0564 225.943C1.0564 225.459 1.0564 224.975 1.0564 224.09L1.05373 224.088Z" fill="white" fill-opacity="0.29"/>
<path d="M1.12828 171.456C3.62154 173.363 5.85613 175.042 8.04007 176.788C8.29339 176.992 8.32806 177.566 8.32806 177.97C8.34673 182.514 8.26139 187.06 8.36805 191.604C8.43738 194.575 9.72002 196.976 12.5439 198.249C15.8132 199.725 19.4637 197.746 20.5704 193.928C20.7757 193.219 20.853 192.451 20.8584 191.711C20.8877 188.149 20.8717 184.584 20.8717 180.912H17.4691V194.995C16.0105 193.802 14.8185 192.831 13.6266 191.858C13.5226 191.775 13.4532 191.636 13.3412 191.58C10.936 190.387 10.9013 188.277 10.9706 185.966C11.0933 181.827 11.0053 177.681 11.0053 173.536C11.0053 172.9 10.928 172.242 11.8879 172.245C17.2531 172.253 22.6183 172.247 28.1621 172.247C28.1621 175.537 28.1728 178.732 28.1595 181.926C28.1435 185.659 28.2768 189.403 28.0341 193.123C27.6528 198.926 24.1383 205.066 17.7118 206.826C11.2426 208.596 4.93883 205.085 2.46157 198.797C1.32561 195.915 1.06961 192.935 1.10694 189.868C1.17894 183.856 1.12828 177.845 1.12828 171.458V171.456Z" fill="white" fill-opacity="0.29"/>
<path d="M19.4051 91.9262C22.2877 89.1316 25.1142 86.3931 28.2208 83.3819C28.2742 84.4195 28.3328 85.0587 28.3355 85.6952C28.3462 88.3668 28.3942 91.041 28.3035 93.7099C28.2822 94.3678 27.9488 95.1915 27.4742 95.622C25.6156 97.3122 23.6316 98.8632 21.7277 100.505C21.4397 100.754 21.1677 101.211 21.165 101.572C21.125 105.533 21.141 109.496 21.141 113.652C23.0716 113.652 24.9623 113.703 26.8449 113.633C27.9515 113.593 28.4395 113.85 28.3702 115.099C28.2582 117.096 28.3302 119.105 28.3462 121.11C28.3515 121.771 28.2422 122.236 27.4209 122.234C23.0743 122.218 18.7278 122.226 14.2079 122.226V120.731C14.2079 113.558 14.2292 106.389 14.1839 99.2189C14.1785 98.1866 13.9199 97.1383 13.6532 96.1301C13.3226 94.8786 12.3919 94.1806 11.128 94.2367C9.88001 94.2929 9.02936 95.1166 8.65337 96.2799C8.42671 96.9779 8.35738 97.7534 8.35738 98.4942C8.33605 105.889 8.34405 113.283 8.34405 120.675V122.405C6.27478 120.8 4.54415 119.281 2.63487 118.04C1.16558 117.086 1.02959 115.821 1.04292 114.32C1.09625 108.461 0.952263 102.594 1.19759 96.7425C1.36558 92.7579 2.52822 89.0353 6.11479 86.6017C10.2507 83.7938 16.7572 85.6791 18.7491 90.2815C18.9758 90.803 19.1704 91.3352 19.4051 91.9235V91.9262Z" fill="white" fill-opacity="0.29"/>
<path d="M28.1969 124.817L28.1969 156.475C27.0209 155.651 26.1116 155.036 25.2236 154.389C24.301 153.715 23.4663 152.886 22.469 152.357C21.1437 151.648 20.7971 150.664 20.8451 149.233C20.941 146.225 20.8744 143.213 20.8744 140.159C17.4585 142.486 14.0239 144.823 10.4586 147.251C12.5146 148.73 14.5199 150.193 16.5465 151.624C20.2397 154.231 23.949 156.815 27.6395 159.425C27.8715 159.588 28.1595 159.893 28.1622 160.133C28.1969 163.329 28.1862 166.522 28.1862 169.993C25.6636 168.202 23.381 166.589 21.1037 164.968C15.4238 160.928 9.80265 156.799 4.04813 152.87C-0.391766 149.84 -0.733092 144.58 4.13079 141.283C11.8479 136.052 19.4878 130.706 27.1622 125.413C27.4689 125.202 27.8076 125.039 28.1942 124.817H28.1969Z" fill="white" fill-opacity="0.29"/>
<path d="M28.0876 83.1313C20.3278 77.6491 12.6533 72.2658 5.02947 66.8076C3.72284 65.8716 2.43754 64.7725 1.49889 63.4862C-0.1864 61.1703 0.309575 57.7365 2.61885 55.8779C5.21346 53.7893 7.97873 51.9093 10.712 49.9999C16.0772 46.2479 21.4717 42.536 26.8583 38.8134C27.2049 38.5728 27.5756 38.3695 28.0849 38.0593L28.0849 69.6183C26.4076 68.4309 24.941 67.1954 23.301 66.2755C21.2584 65.1309 20.6051 63.5878 20.8424 61.296C21.0664 59.1378 20.8824 56.9369 20.9011 54.7547C20.9064 54.2841 21.0131 53.8161 21.0958 53.1716C17.5438 55.6105 14.1039 57.9745 10.5067 60.4455C12.0906 61.5955 13.4933 62.6331 14.9146 63.6386C19.1331 66.6258 23.3624 69.5915 27.5676 72.5921C27.8822 72.8167 28.2262 73.2633 28.2342 73.6163C28.3062 76.5821 28.3062 79.5478 28.3142 82.5136C28.3142 82.6714 28.2022 82.8265 28.0876 83.126V83.1313Z" fill="white" fill-opacity="0.29"/>
<path d="M8.3413 275.995C14.5651 275.995 20.5997 276.032 26.6342 275.965C27.9541 275.949 28.4448 276.267 28.3728 277.661C28.2581 279.88 28.3408 282.111 28.3408 284.477H8.41063V297.41C7.07467 296.442 6.00802 295.696 4.97338 294.907C4.00007 294.164 3.12544 293.265 2.0828 292.645C1.14949 292.088 1.05348 291.329 1.05348 290.438C1.04815 285.451 1.04016 280.466 1.04816 275.479C1.05349 270.986 1.07481 266.493 1.09081 262C1.09081 261.738 1.11749 261.476 1.14682 260.968C3.2481 262.583 5.16005 264.18 7.208 265.576C8.2613 266.295 8.38397 267.138 8.35997 268.245C8.30397 270.775 8.3413 273.304 8.3413 275.997V275.995Z" fill="white" fill-opacity="0.29"/>
<path d="M28.3404 219.792H1.15175L1.15175 211.354C1.58907 211.325 1.97306 211.277 2.35439 211.277C10.5249 211.271 18.6953 211.298 26.8685 211.245C28.0471 211.237 28.4097 211.56 28.3671 212.737C28.2817 215.039 28.3431 217.347 28.3431 219.789L28.3404 219.792Z" fill="white" fill-opacity="0.29"/>
</svg>
