<svg width="22" height="25" viewBox="0 0 22 25" fill="none" xmlns="http://www.w3.org/2000/svg">
<path d="M19.8388 5.6587C18.6329 5.40072 17.5408 4.76428 16.7219 3.84219C15.903 2.9201 15.4 1.76053 15.2863 0.532538V0H11.1262V16.5099C11.1236 17.2408 10.8921 17.9526 10.4641 18.5451C10.0362 19.1377 9.43337 19.5812 8.74031 19.8135C8.04728 20.0457 7.2989 20.055 6.6003 19.84C5.90173 19.625 5.28808 19.1965 4.8456 18.6147C4.39624 18.0232 4.14696 17.304 4.13395 16.5613C4.12091 15.8186 4.3448 15.091 4.77311 14.4841C5.20142 13.8772 5.81192 13.4225 6.51611 13.186C7.22025 12.9494 7.98146 12.9433 8.6893 13.1686V8.94207C7.11081 8.72388 5.50363 9.00449 4.09251 9.74472C2.68137 10.4849 1.5369 11.6477 0.819167 13.0704C0.101435 14.4931 -0.153661 16.1045 0.0895598 17.6793C0.33278 19.2542 1.06215 20.7135 2.17566 21.8534C3.23755 22.94 4.59911 23.6854 6.08656 23.9946C7.57401 24.3038 9.11986 24.1628 10.5268 23.5895C11.9337 23.0162 13.1379 22.0366 13.9856 20.7759C14.8333 19.5151 15.2862 18.0304 15.2863 16.5111V8.07505C16.9675 9.27699 18.9833 9.92147 21.05 9.91778V5.78426C20.643 5.78477 20.2371 5.74267 19.8388 5.6587Z" fill="white"/>
</svg>
