<svg width="29" height="21" viewBox="0 0 29 21" fill="none" xmlns="http://www.w3.org/2000/svg">
<path d="M28.3946 3.12574C28.2261 2.52357 27.9051 1.97509 27.4625 1.53341C27.0198 1.09174 26.4706 0.771836 25.8681 0.604684C23.6063 2.88898e-05 14.5138 2.9054e-05 14.5138 2.9054e-05C14.5138 2.9054e-05 5.43856 -0.0144756 3.15319 0.604684C2.55162 0.772576 2.00353 1.09281 1.5619 1.53445C1.12027 1.97608 0.800026 2.52416 0.632139 3.12574C0.202626 5.44122 -0.00891696 7.79185 0.000287898 10.1468C-0.00390307 12.4905 0.207606 14.8295 0.632139 17.1343C0.80057 17.7362 1.12091 18.2847 1.56238 18.7272C2.00386 19.1696 2.55167 19.4911 3.15319 19.6608C5.41499 20.2655 14.5138 20.2655 14.5138 20.2655C14.5138 20.2655 23.5837 20.2655 25.8681 19.6608C26.4706 19.4918 27.0195 19.1707 27.4619 18.7282C27.9044 18.2857 28.2256 17.7368 28.3946 17.1343C28.8107 14.8308 29.0138 12.4883 28.9993 10.1468C29.0138 7.78981 28.8152 5.44373 28.3946 3.12574ZM11.6093 14.4863V5.78822L19.1779 10.1468L11.6093 14.4863Z" fill="white"/>
</svg>
